# xmcd
#
# Track frame offsets: 
#        150
#        27265
#        66080
#        96580
#        125460
#        173052
#        202497
#
# Disc length: 3046 seconds
#
# Revision: 11
# Processed by: cddbd v1.5.2PL0 Copyright (c) Steve Scherf et al.
# Submitted via: ExactAudioCopy v1.3
#
DISCID=670be407
DTITLE=MISIA - THE GLORY DAY
DYEAR=1998
DGENRE=JPop
TTITLE0=KEY OF LOVE 〜愛の行方〜
TTITLE1=THE GLORY DAY
TTITLE2=MELODY
TTITLE3=INTO THE LIGHT
TTITLE4=INTO THE LIGHT (GOMI'S BEAUTY and BEAST MIX)
TTITLE5=THE GLORY DAY (THE SPECIAL DAY MIX)
TTITLE6=KEY OF LOVE 〜愛の行方〜 (ACOUSTIC CRAB SOUL MIX)
EXTD=YEAR: 1998
EXTT0=
EXTT1=
EXTT2=
EXTT3=
EXTT4=
EXTT5=
EXTT6=
PLAYORDER=
